<svg xmlns="http://www.w3.org/2000/svg" viewBox="0 0 1200 1500" role="img" aria-label="生の人参を手に持つ、静かな食卓のイメージ">
  <defs>
    <linearGradient id="bg" x1="0" y1="0" x2="1" y2="1">
      <stop offset="0" stop-color="#f6f0e4"/>
      <stop offset="0.55" stop-color="#e8ddcc"/>
      <stop offset="1" stop-color="#cfc0aa"/>
    </linearGradient>
    <linearGradient id="carrot" x1="0" y1="0" x2="1" y2="1">
      <stop offset="0" stop-color="#ff8a2a"/>
      <stop offset="0.55" stop-color="#f06a1a"/>
      <stop offset="1" stop-color="#c84b12"/>
    </linearGradient>
    <linearGradient id="leaf" x1="0" y1="0" x2="1" y2="1">
      <stop offset="0" stop-color="#6f8f45"/>
      <stop offset="1" stop-color="#2f4f2f"/>
    </linearGradient>
    <filter id="softShadow" x="-20%" y="-20%" width="140%" height="140%">
      <feDropShadow dx="0" dy="18" stdDeviation="26" flood-color="#6f5b45" flood-opacity="0.22"/>
    </filter>
  </defs>

  <rect width="1200" height="1500" fill="url(#bg)"/>
  <circle cx="105" cy="120" r="310" fill="#fffaf0" opacity="0.46"/>
  <path d="M0 420 C220 360 420 390 650 350 C830 320 1010 250 1200 310 L1200 0 L0 0 Z" fill="#fff9ef" opacity="0.42"/>

  <g opacity="0.36">
    <rect x="110" y="170" width="250" height="620" rx="20" fill="#ffffff"/>
    <path d="M145 185 C175 330 125 450 165 610 C185 690 160 760 140 800" stroke="#d8cab8" stroke-width="16" fill="none" opacity="0.75"/>
  </g>

  <ellipse cx="600" cy="1160" rx="475" ry="105" fill="#8d7158" opacity="0.17"/>

  <g filter="url(#softShadow)">
    <path d="M512 820 C570 748 668 742 735 800 C785 845 800 928 762 987 C710 1066 585 1070 522 1005 C470 952 462 880 512 820 Z" fill="#d7aa86"/>
    <path d="M582 837 C625 814 690 825 727 869 C762 911 760 965 726 1003 C683 1051 600 1047 554 1001 C512 959 512 889 582 837 Z" fill="#e4b894" opacity="0.62"/>
    <path d="M673 420 C720 478 751 599 742 737 C736 829 711 905 673 955 C642 997 591 989 579 939 C558 850 559 705 586 572 C601 500 629 446 673 420 Z" fill="url(#carrot)"/>
    <path d="M662 420 C695 466 711 560 705 672 C699 771 684 859 651 934" stroke="#ffb05d" stroke-width="16" opacity="0.22" fill="none"/>
    <path d="M652 420 C674 400 704 403 725 421 C711 442 688 449 662 440 Z" fill="#f08a3c"/>
    <path d="M623 460 C654 474 688 476 721 462" stroke="#b94315" stroke-width="8" opacity="0.26" fill="none"/>
    <path d="M600 560 C640 574 686 573 724 556" stroke="#b94315" stroke-width="7" opacity="0.22" fill="none"/>
    <path d="M590 690 C635 704 691 702 735 681" stroke="#b94315" stroke-width="7" opacity="0.2" fill="none"/>
    <path d="M585 820 C630 836 687 832 726 812" stroke="#b94315" stroke-width="7" opacity="0.18" fill="none"/>
  </g>

  <g transform="translate(160 1070) rotate(-7)" filter="url(#softShadow)">
    <path d="M70 80 C250 38 448 42 610 96 C657 112 659 168 611 181 C440 226 250 218 70 165 C22 151 21 91 70 80 Z" fill="url(#carrot)"/>
    <path d="M596 115 C694 58 782 45 890 52" stroke="url(#leaf)" stroke-width="18" stroke-linecap="round"/>
    <path d="M608 130 C720 118 793 136 902 198" stroke="url(#leaf)" stroke-width="14" stroke-linecap="round"/>
    <path d="M606 145 C710 172 805 214 910 295" stroke="url(#leaf)" stroke-width="12" stroke-linecap="round"/>
    <path d="M690 62 C660 102 635 136 612 176" stroke="#395c31" stroke-width="8" stroke-linecap="round" opacity="0.72"/>
  </g>

  <g opacity="0.54">
    <circle cx="210" cy="1045" r="72" fill="none" stroke="#ffffff" stroke-width="10"/>
    <path d="M150 1048 C180 1070 235 1072 270 1044" stroke="#c8bca8" stroke-width="8" fill="none"/>
  </g>

  <path d="M420 245 C535 180 690 190 780 278 C855 352 872 468 821 558" stroke="#8b6f54" stroke-width="28" fill="none" opacity="0.28" stroke-linecap="round"/>
  <path d="M760 255 C850 235 970 270 1030 360 C1110 480 1080 650 980 760" fill="none" stroke="#d8cbb8" stroke-width="72" opacity="0.55" stroke-linecap="round"/>
</svg>
